<svg width="96" height="96" viewBox="0 0 96 96" fill="none" xmlns="http://www.w3.org/2000/svg">
  <defs>
    <linearGradient id="firecharts-bg" x1="14" y1="12" x2="82" y2="84" gradientUnits="userSpaceOnUse">
      <stop stop-color="#FFB347"/>
      <stop offset="0.5" stop-color="#F05F3B"/>
      <stop offset="1" stop-color="#8A7CF6"/>
    </linearGradient>
    <linearGradient id="firecharts-bars" x1="30" y1="30" x2="68" y2="68" gradientUnits="userSpaceOnUse">
      <stop stop-color="#FFF8F2"/>
      <stop offset="1" stop-color="#FFE2D2"/>
    </linearGradient>
  </defs>
  <rect x="10" y="10" width="76" height="76" rx="24" fill="#201A1F"/>
  <rect x="14" y="14" width="68" height="68" rx="20" fill="url(#firecharts-bg)"/>
  <path d="M55.8 20C53.8 26.5 49.4 31.4 43.8 35.5C38.3 39.6 33.6 43.5 33.6 50.4C33.6 58.7 40 65 48.2 65C57.6 65 63.7 57.6 63.7 49C63.7 39.2 58.2 32.4 55.8 20Z" fill="#201A1F" fill-opacity="0.16"/>
  <path d="M49.8 27.4C48.2 32.2 45 35.7 41 38.8C36.9 41.8 33.4 44.7 33.4 49.9C33.4 56.7 38.7 61.9 45.5 61.9C53.4 61.9 58.6 55.8 58.6 48.8C58.6 40.7 54 35.1 49.8 27.4Z" fill="#201A1F"/>
  <path d="M46.8 36.1C45.9 39 43.9 41.2 41.3 43.2C38.7 45.1 36.4 47.1 36.4 50.6C36.4 55.2 39.9 58.6 44.4 58.6C49.7 58.6 53.1 54.5 53.1 49.7C53.1 44.2 50 40.4 46.8 36.1Z" fill="#FFF3EA"/>
  <rect x="49" y="47" width="7" height="15" rx="2.8" fill="url(#firecharts-bars)"/>
  <rect x="59" y="40" width="7" height="22" rx="2.8" fill="url(#firecharts-bars)"/>
  <rect x="69" y="33" width="7" height="29" rx="2.8" fill="url(#firecharts-bars)"/>
</svg>
